<?xml version="1.0" standalone="no"?>
<!DOCTYPE svg PUBLIC "-//W3C//DTD SVG 20010904//EN"
 "http://www.w3.org/TR/2001/REC-SVG-20010904/DTD/svg10.dtd">
<svg version="1.0" xmlns="http://www.w3.org/2000/svg"
 width="180.000000pt" height="180.000000pt" viewBox="0 0 180.000000 180.000000"
 preserveAspectRatio="xMidYMid meet">

<g transform="translate(0.000000,180.000000) scale(0.100000,-0.100000)"
fill="#000000" stroke="none">
<path d="M570 1479 c-179 -109 -326 -202 -327 -207 -1 -4 28 -25 65 -48 37
-23 90 -56 119 -74 l52 -32 202 128 c111 70 207 127 213 127 6 0 104 -57 219
-127 114 -69 210 -126 214 -126 8 0 245 152 241 155 -16 12 -667 405 -670 404
-1 0 -149 -90 -328 -200z"/>
<path d="M232 884 l3 -356 323 -199 c178 -109 325 -199 327 -199 3 0 5 159 5
353 l0 352 -97 60 c-53 33 -101 61 -105 63 -4 2 -9 -97 -10 -219 l-3 -223 -54
66 -53 67 -50 -20 c-27 -10 -51 -19 -53 -19 -3 0 -5 111 -5 248 l-1 247 -108
68 c-60 37 -111 67 -115 67 -3 0 -5 -160 -4 -356z"/>
<path d="M1243 1037 l-323 -202 0 -353 c0 -195 4 -352 8 -350 5 2 153 92 330
201 l322 199 0 354 c0 195 -3 354 -7 354 -5 -1 -153 -92 -330 -203z"/>
<path d="M500 865 c0 -193 1 -207 18 -200 47 20 54 18 93 -26 l38 -44 1 191 0
191 -47 30 c-27 16 -60 37 -75 47 l-28 18 0 -207z"/>
</g>
</svg>
